<?xml version="1.0" encoding="UTF-8"?>
<!DOCTYPE svg PUBLIC "-//W3C//DTD SVG 1.1//EN" "http://www.w3.org/Graphics/SVG/1.1/DTD/svg11.dtd">
<svg version="1.1" xmlns="http://www.w3.org/2000/svg" xmlns:xlink="http://www.w3.org/1999/xlink" x="0px" y="0px" width="1249" height="1249" viewBox="0, 0, 1249, 1249">
  <g id="Layer 2">
    <path d="M676.938,620.352 C748.395,612.888 887.251,642.421 946.667,602.81 C984.595,577.525 992.17,505.647 958.667,472.143 C885.73,399.207 834.312,426.456 773.333,365.477 C742.277,334.42 808.499,291.137 800,240.143 C795.575,213.591 757.554,203.587 737.333,193.477 C724.182,186.901 711.219,174.105 697.333,169.477 C676.254,162.45 607.836,151.06 585.333,154.81 C571.682,157.085 558.86,164.556 545.333,166.81 C530.477,169.286 511.079,167.937 497.333,174.81 C451.192,197.881 449.485,258.389 457.333,305.477 C461.284,329.183 480.133,352.678 476,377.477 C467.827,426.516 358.402,462.007 334.667,509.477 C313.398,552.014 286.924,624.939 330.667,646.81 C352.451,657.702 435.848,645.502 460,641.477 C492.441,636.07 524.933,649.543 557.333,644.143 C593.088,638.184 628.455,618.441 662.667,624.143 C671.242,625.573 678.468,621.477 686.667,621.477" fill="#84DCFA"/>
    <path d="M549.047,280.539 C591.89,272.599 596.469,298.444 622.667,302.81 C632.754,304.491 633.369,289.152 640,290.81 C646.215,292.364 649.365,305.197 658.667,301.477 C669.373,297.194 655.656,295.312 682.667,290.81 C691.859,289.278 716.286,297.731 722.667,293.477 C725.763,291.412 699.369,283.489 681.333,277.477 C672.482,274.526 665.113,283.033 657.333,281.477 C652.745,280.559 652.769,265.99 648,262.81 C634.272,253.658 627.651,275.413 617.333,277.477 C610.519,278.84 628.974,256.203 605.333,260.143 C584.798,263.566 567.232,272.527 549.333,281.477" fill="#EDFFFF"/>
    <path d="M495.974,241.529 C578.365,219.672 532.414,297.684 497.333,280.143 C482.731,272.842 482.826,241.477 501.333,241.477" fill="url(#Gradient_1)"/>
    <path d="M479.443,308.586 C488.436,304.43 500.582,302.463 510.667,304.143 C540.985,309.196 559.444,348.458 521.333,354.81 C496.022,359.029 455.733,326.544 481.333,309.477" fill="url(#Gradient_2)"/>
    <path d="M676.938,620.352 C748.395,612.888 887.251,642.421 946.667,602.81 C984.595,577.525 992.17,505.647 958.667,472.143 C885.73,399.207 834.312,426.456 773.333,365.477 C700,389.477 677.527,409.889 664,412.143 C649.144,414.62 716.412,454.604 702.667,461.477 C656.525,484.547 642.667,450.81 604,489.477 C587.006,506.471 497.139,477.477 473.139,494.81 C432.836,523.918 358.402,462.007 334.667,509.477 C313.398,552.014 286.924,624.939 330.667,646.81 C352.451,657.702 435.848,645.502 460,641.477 C492.441,636.07 524.933,649.543 557.333,644.143 C593.088,638.184 628.455,618.441 662.667,624.143 C671.242,625.573 678.468,621.477 686.667,621.477" fill="#50B2E4"/>
    <path d="M706.465,139.368 C743.634,143.741 776.741,158.636 813.131,164.701 C850.843,170.986 980.379,229.458 1002.465,258.906 C1008.902,267.49 1028.754,270.915 1103.798,336.701 C1109.697,340.246 1115.847,343.366 1121.737,346.934 C1124.368,348.527 1128.372,350.511 1130.348,353.13 L1125.856,352.842 C1120.785,353.234 1115.726,354.599 1111.78,357.972 C1091.491,361.067 1070.939,362.276 1050.667,365.477 C1025.231,369.793 999.337,369.763 973.613,369.777 C912.106,369.436 850.614,367.705 789.131,366.034 C782.736,366.034 745.718,365.039 742.465,360.701 C728.897,342.611 743.197,309.094 739.798,288.701 C737.922,277.447 733.438,264.665 726.465,255.368 C718.517,244.771 656.883,191.285 645.131,187.368 C604.21,173.727 539.768,196.731 510.465,226.034 C496.37,240.129 483.17,271.138 479.798,291.368 C477.898,302.765 481.444,353.109 469.131,358.034 C448.328,366.356 391.153,363.031 365.131,367.368 C332.321,372.836 297.945,369.899 265.131,375.368 C182.819,389.086 95.754,389.295 12.444,389.118 L11.798,387.368 C25.675,378.116 37.039,362.108 50.465,351.368 C77.315,329.887 109.524,313.407 137.131,292.701 C157.332,277.55 184.134,264.432 203.798,248.701 C233.87,224.644 319.086,184.39 358.465,164.701 C401.069,143.399 498.396,135.601 547.798,127.368 C591.447,120.093 661.131,134.034 706.465,139.368 z" fill="url(#Gradient_3)"/>
    <path d="M906.039,201.682 C985.895,238.921 1060.066,286.816 1130.246,339.871 C1132.723,342.908 1125.383,351.175 1123.833,353.107 C1119.739,353.22 1116.303,355.178 1112.848,357.126 C1029.103,285.541 934.339,225.363 830.009,188.764 C810.478,181.913 790.68,176.1 770.676,170.824 C726.734,159.662 681.692,152.892 636.398,150.81 C621.08,150.106 617.246,150.227 601.898,150.115 C566.506,150.322 531.149,153.326 496.205,158.919 C346.358,183.069 207.906,253.021 85.596,340.921 C62.974,357.179 40.959,374.204 19.186,391.574 C15.515,390.665 11.74,390.346 7.971,390.213 C6.567,385.39 9.838,381.247 13.276,378.195 C18.393,373.654 23.494,369.091 28.695,364.646 C38.962,355.87 49.226,347.088 59.678,338.534 C80.04,321.869 100.903,305.75 122.253,290.369 C208.474,228.253 303.795,177.257 406.688,149.254 C445.716,138.632 485.657,131.362 525.956,127.831 C541.375,126.48 545.203,126.449 560.67,125.708 L578.137,125.332 C691.802,124.341 803.462,153.847 906.039,201.682 z" fill="#7A7775"/>
    <path d="M580.413,116.886 C696.343,115.926 809.47,146.262 913.817,195.604 C995.126,234.052 1070.517,283.447 1141.786,338.08 C1144.511,341.737 1135.431,351.577 1133.267,353.859 C1129.079,352.734 1131.528,353.205 1125.856,352.842 L1121.28,353.441 C1040.726,284.048 950.048,225.049 850.29,187.324 C831.385,180.175 812.203,173.986 792.819,168.295 C742.929,154.119 691.468,145.569 639.652,143.154 C624.077,142.428 620.179,142.553 604.573,142.438 C574.699,142.614 544.846,144.774 515.247,148.807 C394.085,165.317 279.177,212.934 174.975,275.809 C133.608,300.77 93.743,328.186 55.268,357.395 C37.177,371.129 32.513,375.031 14.689,389.256 L13.044,390.602 C8.656,390.176 10.782,390.313 6.667,390.167 C2.871,390.404 4.753,390.162 1.02,390.892 C-1.429,385.785 2.545,380.979 6.074,377.593 C11.276,372.911 16.462,368.208 21.751,363.624 C45.186,343.312 60.559,330.209 84.962,311.163 C176.163,239.982 277.833,180.128 389.041,146.481 C434.087,132.852 480.467,123.628 527.356,119.462 C543.035,118.069 546.925,118.038 562.653,117.273 z" fill="#DFD4D1"/>
    <path d="M493.344,355.082 C479.507,123.392 714.253,154.071 715.504,365.477 C733.021,375.769 752.722,366.592 746.784,365.477 C730.519,68 440.241,138.667 465.817,359.898 C472.191,366.689 491.522,365.374 499.6,365.374" fill="#2B2B2B"/>
    <path d="M495.255,355.082 C480.511,123.392 730.667,154.071 732,365.477 C750.667,375.769 771.66,366.592 765.333,365.477 C748,68 438.667,138.667 465.922,359.898 C472.714,366.689 493.315,365.374 501.922,365.374" fill="#D9CBCD"/>
  </g>
  <g id="Layer 3">
    <path d="M744.647,509.135 C682.743,508.659 629.91,541.494 579.475,571.755 C548.966,590.06 521.625,575.669 490.142,570.422 C477.681,568.345 458.647,567.004 446.142,569.088 C432.596,571.346 419.689,577.497 406.142,579.755 C398.79,580.98 390.826,578.53 383.475,579.755 C369.931,582.012 357.031,588.162 343.475,590.422 C329.889,592.686 312.255,590.643 299.475,595.755 C293.962,597.96 283.664,604.9 279.475,609.088 C266.376,622.188 300.908,705.83 314.142,715.755 C328.916,726.836 348.673,726.422 366.142,726.422 C460.419,726.422 501.206,723.022 592.808,707.755 C605.767,705.595 619.948,708.994 632.808,706.422 C666.236,699.736 699.278,690.677 732.808,685.088 C749.515,682.304 772.367,685.015 788.808,687.755 C829.576,694.55 982.957,677.964 1012.808,653.088 C1020.851,646.387 1019.08,638.274 1022.142,629.088 C1033.81,594.083 1033.628,562.165 996.808,543.755 C958.917,524.809 912.013,525.178 871.475,518.422 C861.889,516.824 853.06,510.686 843.475,509.088 C808.999,503.342 773.722,497.673 739.475,509.088" fill="#0AAFC9" fill-opacity="0.575"/>
    <path d="M758.745,547.43 C696.841,546.954 644.008,579.789 593.573,610.05 C563.065,628.355 535.723,613.964 504.24,608.717 C491.779,606.64 472.745,605.299 460.24,607.383 C446.694,609.641 433.787,615.792 420.24,618.05 C412.889,619.275 404.925,616.825 397.573,618.05 C384.03,620.307 371.129,626.458 357.573,628.717 C343.987,630.981 326.354,628.938 313.573,634.05 C308.061,636.255 297.762,643.195 293.573,647.383 C280.474,660.483 315.007,744.125 328.24,754.05 C343.015,765.131 362.771,764.717 380.24,764.717 C474.517,764.717 515.304,761.317 606.907,746.05 C619.865,743.89 634.046,747.289 646.907,744.717 C680.335,738.031 713.377,728.972 746.907,723.383 C763.613,720.599 786.465,723.31 802.907,726.05 C843.675,732.845 997.056,716.259 1026.906,691.383 C1034.949,684.682 1033.178,676.57 1036.24,667.383 C1047.908,632.378 1047.727,600.46 1010.907,582.05 C973.015,563.104 926.112,563.473 885.573,556.717 C875.988,555.119 867.159,548.981 857.573,547.383 C823.098,541.638 787.821,535.968 753.573,547.383" fill="#63C6EF"/>
    <path d="M634.006,688.219 C597.844,672.797 560.612,693.432 523.74,687.286 C501.298,683.546 474.995,676.744 451.74,680.62 C421.021,685.74 397.3,703.286 365.074,703.286 C350.367,703.286 319.755,693.909 313.074,713.953 C304.792,738.799 317.315,766.677 325.074,789.953 C333.069,813.939 337.435,838.509 358.407,855.286 C389.666,880.293 432.768,866.748 469.074,871.286 C538.036,879.907 702.05,860.29 774.407,849.953 C809.484,844.942 930.117,856.813 950.407,843.286 C964.747,833.727 973.634,820.762 983.74,807.286 C1007.698,775.343 1039.048,728.355 1014.407,687.286 C1006.982,674.911 992.946,671.889 981.074,665.953 C927.819,639.326 868.88,635.351 813.074,653.953 C793.019,660.638 776.796,668.759 758.407,677.953 C726.952,693.681 667.358,688.62 631.74,688.62" fill="#0AAFC9" fill-opacity="0.575"/>
    <path d="M639.599,718.266 C603.437,702.844 566.205,723.479 529.333,717.333 C506.89,713.593 480.588,706.791 457.333,710.667 C426.614,715.787 402.893,733.333 370.667,733.333 C355.96,733.333 325.348,723.956 318.667,744 C310.385,768.846 322.908,796.724 330.667,820 C338.662,843.986 343.028,868.556 364,885.333 C395.258,910.34 438.361,896.795 474.667,901.333 C543.629,909.954 707.643,890.337 780,880 C815.077,874.989 935.709,886.86 956,873.333 C970.34,863.773 979.227,850.809 989.333,837.333 C1013.291,805.39 1044.641,758.402 1020,717.333 C1012.575,704.958 998.539,701.936 986.667,696 C933.411,669.372 874.473,665.398 818.667,684 C798.612,690.685 782.389,698.806 764,708 C732.545,723.728 672.951,718.667 637.333,718.667" fill="#62C5EF"/>
    <path d="M845.448,775.641 C827.562,752.481 805.752,768.879 782.667,765.031 C765.756,762.213 753.315,749.923 734.667,753.031 C721.05,755.301 709.918,765.601 697.333,767.698 C676.956,771.094 657.832,776.282 637.333,779.698 C629.898,780.937 611.331,768.254 590.667,771.698 C565.428,775.904 539.462,771.565 514.667,775.698 C495.715,778.857 477.617,787.206 458.667,790.365 C426.007,795.808 395.23,774.083 362.667,790.365 C354.328,794.534 340.385,801.594 336,810.365 C314.139,854.087 326.271,993.969 361.333,1029.031 C370.382,1038.079 384.068,1037.054 396,1041.031 C427.895,1051.663 454.816,1078.365 490.667,1078.365 C526.166,1078.365 551.638,1063.819 584,1053.031 C593.995,1049.7 622.639,1064.36 634.667,1066.365 C652.312,1069.306 702.399,1070.212 720,1067.698 C752.018,1063.124 767.02,1027.861 800,1022.365 C825.28,1018.151 855.877,1029.347 880,1019.698 C912.744,1006.601 943.519,983.576 980,978.365 C1017.445,973.015 1057.29,964.266 1088,939.698 C1097.858,931.812 1097.449,920.801 1102.667,910.365 C1133.463,848.772 1060.177,777.535 1006.667,759.698 C985.131,752.519 907.102,762.292 882.667,766.365 C869.863,768.499 855.619,774.365 842.667,774.365" fill="#0AAFC9" fill-opacity="0.575"/>
    <path d="M845.448,819.943 C827.562,796.783 805.752,813.181 782.667,809.333 C765.756,806.515 753.315,794.225 734.667,797.333 C721.05,799.603 709.918,809.903 697.333,812 C676.956,815.396 657.832,820.584 637.333,824 C629.898,825.239 611.331,812.556 590.667,816 C565.428,820.206 539.462,815.867 514.667,820 C495.715,823.159 477.617,831.508 458.667,834.667 C426.007,840.11 395.23,818.385 362.667,834.667 C354.328,838.836 340.385,845.896 336,854.667 C314.139,898.389 326.271,1038.271 361.333,1073.333 C370.382,1082.381 384.068,1081.356 396,1085.333 C427.895,1095.965 454.816,1122.667 490.667,1122.667 C526.166,1122.667 551.638,1108.121 584,1097.333 C593.995,1094.002 622.639,1108.662 634.667,1110.667 C652.312,1113.608 702.4,1114.514 720,1112 C752.018,1107.426 767.02,1072.163 800,1066.667 C825.28,1062.453 855.877,1073.649 880,1064 C912.744,1050.903 943.519,1027.878 980,1022.667 C1017.445,1017.317 1057.29,1008.568 1088,984 C1097.858,976.114 1097.449,965.103 1102.667,954.667 C1133.463,893.074 1096.589,796.503 1043.078,778.667 C1021.543,771.488 907.102,806.594 882.667,810.667 C869.863,812.801 855.619,818.667 842.667,818.667" fill="url(#Gradient_4)"/>
    <path d="M616.109,596.219 C642.817,611.054 632.654,603.337 654.667,596 C662.535,593.377 669.239,598.761 676,592 C680.545,587.455 680.308,581.149 686.667,577.333 C691.195,574.616 695.378,578.649 698.667,577.333 C704.792,574.883 702.476,566.667 710.667,566.667 C717.438,566.667 732.741,563.704 738.667,566.667 C747.643,571.155 747.437,587.743 762.667,582.667 C776.221,578.149 771.9,561.367 784,557.333 C792.232,554.589 790.992,568.504 800,564 C804.005,561.997 803.97,554.418 808,552 C823.809,542.514 847.674,560 864,560 C868.216,560 898.706,562.549 900,558.667 C902.095,552.383 883.255,551.82 881.333,550.667 C868.212,542.794 859.606,543.803 846.667,537.333 C838.726,533.363 833.21,525.292 825.333,522.667 C814.959,519.209 810.062,529.899 798.667,528 C792.144,526.913 791.529,520.251 786.667,517.333 C775.633,510.713 770.216,526.892 762.667,530.667 C751.21,536.395 749.726,520.376 737.333,525.333 C736.391,525.71 714.85,542.1 712,544 C702.98,550.013 686.147,537.808 677.333,541.333 C670.276,544.156 662.048,562.106 657.333,568 C646.831,581.128 627.562,573.315 620,596" fill="#E6FDFC"/>
    <path d="M513.62,621.599 C517.39,618.645 540.693,630.96 548,620 C549.233,618.151 549.233,615.182 548,613.333 C547.245,612.2 538.776,612.24 537.333,612 C526.026,610.116 518.205,596.59 506.667,594.667 C496.74,593.012 491.553,605.555 485.333,604 C479.459,602.531 483.542,588.368 473.333,586.667 C461.31,584.663 463.602,596.955 453.333,598.667 C448.624,599.452 437.188,596.146 433.333,600 C429.999,603.334 434.925,608.215 429.333,609.333 C411.433,612.913 388.88,614.667 370.667,614.667 C360.051,614.667 306.774,614.881 318.667,638.667 C322.85,647.033 346.282,639.239 352,637.333 C369.553,631.482 465.144,613.906 480,621.333 C485.098,623.882 494.427,637.493 502.667,632 C507.947,628.48 505.552,620 516,620" fill="#E6FDFC"/>
    <path d="M748.703,715.599 C760.49,702.658 785.15,704.229 796,690.667 C804.558,679.969 790.442,671.371 818.667,666.667 C826.198,665.411 836.645,679.355 844,672 C848.345,667.655 850.869,653.232 856,650.667 C865.151,646.091 866.489,660 874.667,660 C897.558,660 924.437,655.977 932,678.667 C932.214,679.309 919.389,681.093 918.667,681.333 C904.595,686.024 899.336,685.998 889.333,696 C878.454,706.88 878.758,687.318 866.667,689.333 C853.144,691.587 853.894,710.129 842.667,712 C830.998,713.945 827.286,701.659 817.333,700 C805.421,698.015 806.429,706.302 797.333,709.333 C783.606,713.909 767.216,712.706 753.333,717.333" fill="#E6FDFC"/>
    <path d="M700.151,725.625 C696.448,725.059 692.762,726.057 689.333,724 C682.251,719.751 674.176,718.421 666.667,714.667 C661.43,712.048 659.347,706.004 653.333,704 C646.908,701.858 643.257,709.975 637.333,708 C632.933,706.533 629.733,701.467 625.333,700 C619.312,697.993 609.081,702.811 605.333,700 C599.801,695.851 596.693,675.653 585.333,681.333 C580.284,683.858 576.346,692.593 570.667,696 C565.189,699.286 552.802,705.644 546.667,706.667 C543.894,707.129 541.181,702.743 538.667,704 C535.339,705.664 538.825,710.011 537.333,712 C532.957,717.835 512.547,693.202 505.333,692 C493.083,689.958 488.291,698.075 478.667,700 C474.399,700.854 467.884,692.87 462.667,692 C461.594,691.821 431.414,703.751 426.667,705.333 C417.958,708.236 336.938,731.407 342.667,740 C347.233,746.849 392.864,739.712 400,737.333 C411.483,733.506 429.846,716.53 442.667,718.667 C448.995,719.721 447.667,726.722 456,725.333 C460.428,724.595 469.212,710.885 472,712 C480.147,715.259 482.258,721.043 492,722.667 C501.666,724.278 520.19,717.46 528,722.667 C532.671,725.781 549.171,743.766 554.667,742.667 C562.65,741.07 548.092,735.411 556,730.667 C559.165,728.767 576.759,726.055 580,728 C582.729,729.638 582.789,733.577 584,736 C593.074,754.148 599.504,741.333 609.333,741.333 C610.772,741.333 610.315,764.597 620,757.333 C632.106,748.254 603.671,726.667 628,726.667 C639.153,726.667 696,732.308 696,725.333" fill="#E6FDFC"/>
    <path d="M361.193,829.5 C380.643,823.973 402.755,809.793 424,813.333 C434.927,815.155 445.018,823.059 450.667,824 C456.395,824.955 487.05,821.808 490.667,820 C495.821,817.423 487.707,813.382 496,812 C501.691,811.051 520.795,817.07 524,814.667 C540.888,802.001 542.859,814.323 552,810.667 C556.121,809.018 553.568,805.099 556,802.667 C562.805,795.861 576.764,802.667 584,802.667 C590.723,802.667 600.678,797.22 608,796 C646.833,789.528 612.4,821.267 644,816 C650.245,814.959 655.676,804.13 662.667,801.333 C669.285,798.686 677.813,807.236 682.667,804 C684.617,802.7 678.966,789.034 682.667,785.333 C693.297,774.703 692.435,807.205 706.667,798.667 C712.714,795.038 710.223,789.185 716,785.333 C719.655,782.897 725.037,785.975 728,784 C731.531,781.646 721.195,758.176 738.667,764 C748.368,767.234 739.147,778.524 748,780 C752.418,780.736 760.313,774.875 764,777.333 C765.475,778.317 758.184,786.468 761.333,790.667 C763.419,793.448 777.34,795.328 780,793.333 C784.356,790.067 778.674,783.986 780,781.333 C781.121,779.092 789.94,778.667 792,778.667 C805.237,778.667 800.491,782.105 809.333,788 C814.932,791.732 825.61,788.268 832,789.333 C835.743,789.957 862.597,803.532 872,806.667 C876.011,808.004 894.807,805.896 896,810.667 C897.178,815.377 857.471,823.908 853.333,826.667 C837.906,836.952 840.621,822.548 825.333,820 C817.18,818.641 809.963,825.438 801.333,824 C795.8,823.078 790.638,817.333 785.333,817.333 C777.545,817.333 783.231,832.633 765.333,826.667 C755.68,823.449 749.911,813.874 738.667,812 C726.227,809.927 733.099,818.901 728,824 C721.194,830.806 707.898,817.435 701.333,824 C697.39,827.943 702.076,827.849 700,832 C698.237,835.526 691.549,838.009 689.333,841.333 C685.582,846.96 703.665,860 686.667,860 C678.957,860 682.277,841.518 676,837.333 C664.87,829.913 652.142,840.468 641.333,838.667 C635.118,837.631 634.295,827.679 625.333,830.667 C608.2,836.378 621.22,841.446 616,846.667 C608.598,854.069 598.666,837.334 593.333,842.667 C590.818,845.182 595.941,866.643 582.667,861.333 C578.522,859.675 579.577,848.91 576,845.333 C565.795,835.129 559.757,852.363 550.667,849.333 C543.497,846.944 545.719,837.565 538.667,833.333 C533.14,830.017 527.042,835.959 522.667,833.333 C517.167,830.033 522.849,829.103 517.333,828 C512.386,827.01 474.252,837.131 470.667,840 C466.492,843.34 464.818,848.308 458.667,849.333 C448.93,850.956 443.825,842.86 434.667,841.333 C416.648,838.33 401.4,840.456 382.667,837.333 C377.254,836.431 372.24,831.191 366.667,829.333" fill="#E6FDFC"/>
  </g>
  <g id="Layer 4">
    <path d="M904.857,456.203 C901.787,443.515 889.118,430.689 889.118,416.995 C889.118,411.001 905.631,441.252 907.784,442.328 C914.96,445.916 895.426,408.995 898.451,408.995 C905.113,408.995 907.138,431.015 910.451,434.328 C913.59,437.467 915.204,408.414 907.784,400.995 C899.63,392.84 912.526,424.403 918.451,430.328 C921.873,433.75 908.881,401.232 917.118,392.995 C919.651,390.461 917.748,400.148 918.451,403.662 C920.728,415.047 921.118,426.337 921.118,438.328 C921.118,441.911 921.862,431.196 922.451,427.662 C922.912,424.896 929.885,392.995 927.784,392.995 C923.34,392.995 927.784,401.884 927.784,406.328 C927.784,418.107 927.784,438.815 927.784,434.328 C927.784,431.225 926.397,399.644 930.451,400.995 C938.993,403.842 929.528,429.405 934.451,434.328 C936.235,436.112 954.531,394.169 951.784,399.662 C941.158,420.915 933.69,439.851 935.784,435.662 C938.091,431.049 959.425,399.662 963.784,399.662 C964.531,399.662 963.466,427.283 962.451,430.328 C953.342,457.655 929.058,458.328 903.784,458.328" fill="url(#Gradient_5)"/>
    <path d="M467.214,358.322 C455.026,354.605 443.977,353.28 431.412,355.374 C420.533,357.187 410.012,361.174 399.412,364.707 C386.552,368.994 347.797,385.221 363.412,406.041 C364.853,407.962 558.572,441.201 495.412,378.041 C485.863,368.492 476.403,365.038 463.412,360.707" fill="url(#Gradient_6)"/>
    <path d="M579.271,391.379 C555.681,370.796 493.367,415.685 535.412,436.707 C548.212,443.108 630.702,442.579 622.078,416.707 C618.145,404.908 584.37,392.901 574.078,386.041" fill="url(#Gradient_7)"/>
    <path d="M747.011,359.259 C738.406,352.119 726.374,350.88 715.412,352.707 C699.488,355.361 639.086,387.38 667.412,410.041 C693.617,431.005 750.896,420.879 779.412,411.374 C787.252,408.76 807.654,409.435 803.412,396.707 C802.281,393.316 749.163,362.763 742.078,358.041" fill="url(#Gradient_8)"/>
    <path d="M832.271,407.046 C823.855,394.587 809.127,385.882 794.078,383.374 C765.547,378.619 751.856,428.974 764.745,436.707 C771.261,440.617 848.455,434.33 852.745,430.041 C855.827,426.959 844.375,422.763 843.412,422.041 C838.071,418.035 835.92,409.215 831.412,404.707" fill="url(#Gradient_9)"/>
    <path d="M471.386,476.603 C463.423,477.467 460.208,465.643 467.412,462.041 C474.002,458.746 484.124,455.374 491.412,455.374 C497.524,455.374 505.26,451.99 511.412,454.041 C540.958,463.889 480.874,505.095 471.412,476.707" fill="url(#Gradient_10)"/>
    <path d="M414.49,476.916 C415.505,457.679 475.485,454.334 480.745,475.374 C489.493,510.364 426.737,491.695 416.745,476.707" fill="url(#Gradient_11)"/>
    <path d="M376.862,436.063 C386.009,428.101 372.935,400.5 380.295,393.141 C381.487,391.948 383.847,412.547 389.628,414.474 C393.013,415.602 394.071,399.364 396.295,397.141 C398.906,394.53 401.864,423.572 394.961,430.474 C394.094,431.342 396.123,407.893 401.628,405.141 C402.897,404.506 402.204,433.716 402.961,434.474 C406.944,438.456 412.295,395.381 412.295,426.474 C412.295,433.15 414.505,444.568 410.961,450.474 C403.479,462.944 378.837,444.892 374.961,437.141" fill="url(#Gradient_12)"/>
    <path d="M309.391,495.405 C270.826,489.069 268.067,442.38 303.412,424.707 C347.671,402.578 380.442,413.737 414.078,447.374 C423.048,456.343 441.164,455.526 438.078,474.041 C433.984,498.604 368.635,489.837 351.412,492.707 C333.455,495.7 322.196,504.302 303.412,498.041" fill="url(#Gradient_13)"/>
    <path d="M260.139,562.788 C278.375,563.237 295.976,561.153 313.603,558.215 C325.06,556.305 338.744,555.892 349.603,551.548 C392.606,534.347 375.746,478.128 320.27,468.882 C286.233,463.209 150.175,493.454 204.269,547.548 C219.477,562.756 251.187,557.409 269.603,563.548" fill="url(#Gradient_14)"/>
    <path d="M281.651,568.99 L280.5,568.5" fill-opacity="0" stroke="#000000" stroke-width="1" stroke-linecap="round"/>
    <path d="M282.526,567.39 C251.477,567.092 207.252,576.022 181.255,595.52 C168.71,604.929 154.984,647.678 174.589,655.52 C194.193,663.361 320.535,657.019 338.589,646.186 C346.241,641.595 350.482,633.171 353.255,624.853 C366.349,585.571 295.261,568.853 269.255,568.853" fill="url(#Gradient_15)"/>
    <path d="M976.969,466.688 L976.5,469.833" fill-opacity="0" stroke="#000000" stroke-width="1" stroke-linecap="round"/>
    <path d="M970.598,464.715 C992.741,463.699 1015.829,467.177 1037.603,463.548 C1050.577,461.386 1055.489,427.24 1048.27,418.215 C1039.095,406.746 993.949,405.268 980.269,407.548 C943.933,413.604 899.316,467.548 973.603,467.548" fill="url(#Gradient_16)"/>
    <path d="M975.43,485.26 C976.135,479.185 989.729,446.373 994.961,441.141 C997.183,438.918 994.622,447.493 993.628,450.474 C991.029,458.272 990.441,472.327 984.295,478.474 C981.761,481.008 988.025,472.346 989.628,469.141 C992.588,463.22 1002.082,437.141 1009.628,437.141 C1010.074,437.141 1002.243,454.578 1001.628,455.807 C997.339,464.385 995.319,475.449 988.295,482.474 C984.63,486.139 993.977,473.777 996.295,469.141 C999.12,463.49 1011.547,439.514 1016.295,437.141 C1031.709,429.433 998.961,470.229 998.961,478.474 C998.961,482.874 1005.737,472.721 1008.295,469.141 C1013.798,461.435 1021.398,453.601 1025.628,445.141 C1026.105,444.187 1028.98,433.141 1029.628,433.141 C1037.656,433.141 1006.826,479.807 1006.961,479.807 C1022.122,479.807 1025.434,437.904 1034.961,433.141 C1036.409,432.417 1035.277,456.266 1034.961,458.474 C1034.737,460.042 1032.535,478.474 1032.295,478.474 C1028.637,478.474 1032.798,433.141 1037.628,433.141 C1038.949,433.141 1042.961,477.932 1042.961,471.807 C1042.961,463.712 1039.364,443.405 1045.628,437.141 C1051.366,431.403 1043.864,470.044 1048.295,474.474 C1050.84,477.019 1053.628,454.728 1053.628,453.141 C1053.628,448.696 1053.628,462.03 1053.628,466.474 C1053.628,471.653 1052.321,494.883 1049.628,498.474 C1043.493,506.654 1043.654,485.833 1042.961,485.141 C1038.876,481.055 1041.776,502.968 1036.295,501.141 C1032.194,499.774 1035.705,486.278 1032.295,485.141 C1030.08,484.402 1026.667,499.807 1025.628,499.807 C1020.497,499.807 1023.03,490.543 1021.628,489.141 C1017.471,484.984 1016.301,499.365 1009.628,497.141 C1000.142,493.979 1010.244,495.449 1002.961,491.807 C991.066,485.86 983.734,493.913 972.295,482.474" fill="url(#Gradient_17)"/>
    <path d="M1025.87,523.676 C1020.342,516.569 1016.205,505.702 1013.255,496.853 C994.737,441.297 905.255,467.978 905.255,522.186 C905.255,527.596 903.716,533.98 907.922,538.186 C926.526,556.791 1047.791,551.345 1023.922,519.52" fill="url(#Gradient_18)"/>
    <path d="M960.992,568.76 C960.164,557.802 958.534,530.021 960.295,529.141 C962.3,528.138 971.029,542.474 973.628,542.474 C977.143,542.474 971.182,529.129 970.961,527.807 C968.888,515.369 974.229,542.005 977.628,531.807 C978.471,529.278 974.961,523.807 977.628,523.807 C981.708,523.807 979.428,529.374 981.628,530.474 C983.208,531.264 982.817,511.855 982.961,511.807 C992.026,508.786 989.949,536.128 992.295,538.474 C997.679,543.859 994.964,501.141 1000.295,501.141 C1003.39,501.141 997.239,548.752 998.961,550.474 C1001.665,553.177 1003.18,544.078 1005.628,541.141 C1012.46,532.942 1019.654,524.448 1026.961,517.141 C1029.628,514.474 1034.961,505.369 1034.961,509.141 C1034.961,521.384 1014.961,546.449 1014.961,562.474 C1014.961,562.766 1020.488,552.693 1026.961,545.141 C1030.85,540.604 1037.569,535.924 1040.295,530.474 C1046.369,518.324 1026.851,554.253 1028.295,557.141 C1028.843,558.238 1047.07,539.195 1048.295,539.807 C1053.109,542.215 1034.782,567.987 1032.295,570.474 C1025.55,577.219 995.079,584.291 985.628,581.141 C977.713,578.502 969.736,574.51 961.628,571.807" fill="url(#Gradient_19)"/>
    <path d="M991.65,614.329 C1014.901,611.287 1081.562,625.125 1086.936,592.882 C1087.749,588.005 1087.933,580.545 1084.27,576.882 C1079.963,572.575 1042.195,552.536 1036.27,551.548 C1024.442,549.577 1011.622,552.323 1000.269,554.215 C973.497,558.677 903.221,615.548 993.603,615.548" fill="url(#Gradient_20)"/>
    <path d="M987.822,802.329 C1010.605,810.396 1099.62,817.171 1110.936,788.882 C1125.247,753.105 1059.854,661.479 1024.27,655.548 C1011.935,653.492 991.141,654.359 980.269,660.882 C957.842,674.338 848.428,763.747 869.603,790.215 C873.165,794.667 879.683,796.49 884.269,799.548 C918.093,822.097 968.603,792.548 1005.603,804.882" fill="url(#Gradient_21)"/>
    <path d="M337.013,796.557 C348.921,799.517 369.331,813.289 382.961,806.474 C387.097,804.406 396.361,767.174 392.295,765.141 C389.173,763.58 389.601,777.821 388.295,778.474 C370.024,787.609 394.549,765.553 381.628,778.474 C377.217,782.885 379.269,765.961 380.295,759.807 C382.015,749.484 396.295,737.65 396.295,729.141 C396.295,718.175 381.634,750.457 381.628,750.474 C369.457,786.988 379.584,776.43 370.961,767.807 C366.8,763.646 364.295,790.364 364.295,761.141 C364.295,750.523 365.41,734.983 369.628,725.141 C370.326,723.512 379.48,709.66 377.628,707.807 C373.635,703.814 364.036,765.937 362.961,766.474 C356.993,769.458 366.769,739.615 358.961,731.807 C352.947,725.793 365.172,765.597 360.295,770.474 C355.935,774.834 359.385,751.353 352.295,747.807 C350.593,746.957 351.295,762.141 350.961,762.474 C348.188,765.247 344.456,756.775 342.961,747.807 C341.879,741.315 343.738,692.862 341.628,691.807 C331.25,686.619 338.961,755.469 338.961,758.474 C338.961,761.175 340.496,785.719 337.628,783.807 C331.242,779.55 329.221,715.807 326.961,715.807 C320.739,715.807 326.961,728.252 326.961,734.474 C326.961,741.483 322.501,774.013 326.961,778.474 C326.969,778.482 323.559,763.393 321.628,751.807 C320.652,745.953 322.738,705.029 320.295,703.807 C319.418,703.369 317.245,724.56 317.628,726.474 C321.406,745.367 321.628,767.157 321.628,786.474 C321.628,790.768 316.295,771.222 316.295,759.807 C316.295,749.531 322.214,720.393 321.628,719.807 C321.083,719.263 317.789,733.508 317.628,734.474 C315.098,749.655 312.295,762.691 312.295,778.474 C312.295,780.74 311.678,773.957 310.961,771.807 C303.469,749.33 290.26,701.141 289.628,701.141 C285.901,701.141 297.869,759.918 298.961,766.474 C299.723,771.047 309.588,781.259 308.295,785.141 C306.779,789.689 291.434,764.447 290.961,761.141 C289.826,753.192 287.194,701.141 278.961,701.141 C275.688,701.141 290.828,764.741 285.628,766.474 C277.596,769.151 263.3,736.464 260.295,742.474 C258.638,745.787 269.342,754.442 270.961,757.141 C275.675,764.997 282.961,773.546 282.961,773.141 C282.961,770.649 265.426,755.43 264.295,755.807 C254.474,759.081 289.144,795.323 292.295,798.474 C301.682,807.862 333.585,798.015 346.961,802.474" fill="url(#Gradient_22)"/>
    <path d="M365.547,852.214 C399.48,840.226 408.265,845.598 378.667,816 C365.396,802.729 340.763,762.895 314.667,773.333 C302.394,778.243 252.356,824.356 266.667,838.667 C277.062,849.062 347.422,853.333 364,853.333" fill="url(#Gradient_23)"/>
    <path d="M282.722,920.167 C295.98,913.595 354.961,895.339 354.961,877.141 C354.961,867.656 341.882,861.332 340.295,851.807 C339.773,848.68 343.953,833.357 341.628,831.807 C333.092,826.117 333.628,882.096 333.628,825.141 C333.628,814.925 327.716,824.611 326.961,829.141 C326.438,832.281 327.981,865.036 324.295,863.807 C311.429,859.519 322.505,824.088 316.295,815.807 C312.238,810.399 310.053,827.749 310.961,830.474 C311.819,833.049 322.568,852.004 317.628,854.474 C310.856,857.86 308.111,809.524 302.961,807.807 C288.49,802.984 318.629,854.807 314.961,858.474 C310.133,863.302 295.521,805.701 293.628,803.807 C290.114,800.294 295.478,813.573 296.295,818.474 C298.274,830.349 302.961,842.328 302.961,854.474 C302.961,855.354 304.461,866.863 305.628,866.474 C306.765,866.095 299.005,856.072 297.628,847.807 C296.583,841.538 286.961,793.311 286.961,814.474 C286.961,830.1 296.295,854.91 296.295,874.474 C296.295,879.881 295.338,863.603 293.628,858.474 C290.54,849.209 287.146,826.659 280.295,819.807 C277.761,817.274 280.495,827.075 281.628,830.474 C282.669,833.597 296.041,874.474 293.628,874.474 C292.808,874.474 267.074,825.254 261.628,819.807 C258.663,816.843 266.419,826.724 268.295,830.474 C270.725,835.336 288.033,865.402 282.961,870.474 C281.294,872.141 258.897,835.06 256.295,831.807 C255.483,830.793 244.484,818.095 244.295,818.474 C242.679,821.705 277.755,858.094 274.961,866.474 C271.952,875.502 242.946,822.49 240.295,825.141 C239.307,826.128 255.592,858.403 257.628,862.474 C259.406,866.03 262.961,877.116 262.961,873.141 C262.961,866.366 241.948,842.794 237.628,838.474 C236.271,837.117 225.732,824.33 226.961,830.474 C228.896,840.15 240.877,850.887 244.295,861.141 C244.956,863.124 253.835,884.933 256.295,882.474 C257.919,880.849 225.965,845.31 220.295,842.474 C218.313,841.483 200.295,831.673 200.295,831.807 C200.295,840.722 242.471,880.65 250.961,889.141 C264.379,902.558 242.145,895.195 237.628,891.807 C236.073,890.641 220.434,874.195 220.295,874.474 C214.66,885.744 244.261,901.075 246.961,906.474 C247.705,907.961 226.142,907.293 225.628,907.807 C223.469,909.966 240.765,922.709 242.961,923.807 C262.436,933.545 278.96,925.141 294.961,914.474" fill="url(#Gradient_24)"/>
    <path d="M322.957,969.965 C344.685,965.962 431.611,973.54 445.603,959.548 C457.053,948.099 402.942,860.887 390.936,848.882 C383.99,841.936 371.568,833.115 360.27,836.882 C333.829,845.695 254.542,906.609 233.603,927.548 C227.636,933.515 214.997,943.67 220.269,954.215 C227.014,967.705 276.582,967.548 289.603,967.548 C301.77,967.548 313.213,970.215 325.603,970.215" fill="url(#Gradient_25)"/>
    <path d="M923.232,818.177 C949.559,839.874 1044.351,851.112 1074.961,835.807 C1084.417,831.079 1090.476,820.898 1096.295,813.141 C1099.851,808.398 1105.628,803.102 1105.628,795.807 C1105.628,790.558 1098.657,785.985 1097.628,779.807 C1097.292,777.791 1097.266,756.169 1093.628,759.807 C1086.483,766.952 1097.429,786.772 1092.295,794.474 C1087.126,802.227 1080.923,787.579 1080.295,783.807 C1079.816,780.936 1082.201,769.714 1080.295,767.807 C1075.545,763.058 1086.402,802.732 1073.628,798.474 C1070.944,797.579 1076.643,758.387 1065.628,761.141 C1061.23,762.24 1062.961,781.831 1062.961,785.141 C1062.961,787.489 1060.237,802.416 1053.628,795.807 C1051.546,793.725 1059.412,769.428 1053.628,777.141 C1052.065,779.225 1051.856,801.293 1041.628,794.474 C1033.13,788.809 1094.902,729.17 1065.628,743.807 C1055.593,748.825 1043.706,768.023 1037.628,777.141 C1037.212,777.764 1030.269,788.448 1029.628,787.807 C1027.734,785.914 1046.677,757.633 1033.628,759.807 C1024.972,761.25 1031.323,792.655 1021.628,787.807 C1019.114,786.55 1019.423,782.58 1018.961,779.807 C1014.816,754.938 1054.328,725.49 1040.295,718.474 C1039.5,718.076 1038.39,718.017 1037.628,718.474 C1026.12,725.378 1006.363,785.141 1004.295,785.141 C999.238,785.141 1011.407,734.032 1010.961,733.141 C1006.34,723.898 1000.636,781.813 997.628,779.807 C990.807,775.26 997.702,753.215 992.295,747.807 C986.383,741.895 1001.204,795.545 986.961,771.807 C980.083,760.344 981.628,745.013 981.628,731.807 C981.628,726.898 980.295,741.565 980.295,746.474 C980.295,757.109 985.628,768.119 985.628,778.474 C985.628,782.057 981.897,772.346 980.295,769.141 C974.842,758.235 969.34,733.141 968.295,733.141 C960.756,733.141 983.73,781.141 976.295,781.141 C971.867,781.141 962.793,740.39 961.628,739.807 C960.448,739.217 965.628,775.579 965.628,778.474 C965.628,787.813 957.747,752.534 956.295,751.807 C956.154,751.737 955.467,778.98 958.961,782.474 C961.841,785.353 946.506,750.081 945.628,754.474 C943.674,764.244 945.628,776.481 945.628,786.474 C945.628,789.851 948.672,763.329 941.628,759.807 C938.785,758.386 935.29,780.502 934.961,782.474 C932.641,796.394 919.905,806.557 929.628,821.141" fill="url(#Gradient_26)"/>
    <path d="M316.831,1025.917 C327.857,1029.157 383.726,1041.233 390.961,1035.807 C393.523,1033.886 396.381,1028.257 397.628,1025.141 C400.114,1018.925 395.81,1005.353 389.628,1003.807 C387.151,1003.188 386.036,1010.066 385.628,1010.474 C383.094,1013.008 385.897,1003.012 384.295,999.807 C381.595,994.408 366.837,991.084 372.295,983.807 C373.728,981.896 394.838,947.838 389.628,949.141 C380.528,951.416 371.224,985.141 362.961,985.141 C351.446,985.141 375.793,922.364 373.628,923.807 C361.433,931.937 359.29,981.141 357.628,981.141 C355.201,981.141 355.853,924.249 360.295,919.807 C360.295,919.807 359.17,929.847 356.295,938.474 C351.795,951.973 349.628,968.159 349.628,982.474 C349.628,987.383 348.295,972.716 348.295,967.807 C348.295,961.438 352.348,931.861 348.295,927.807 C345.818,925.331 345.316,981.141 344.295,981.141 C337.581,981.141 342.976,945.141 337.628,945.141 C335.046,945.141 342.716,985.141 337.628,985.141 C328.522,985.141 326.961,949.627 326.961,943.807 C326.961,940.252 326.377,950.967 326.961,954.474 C327.541,957.952 333.143,984.717 329.628,986.474 C323.129,989.723 321.184,940.548 318.961,939.807 C313.364,937.942 319.072,981.03 317.628,982.474 C310.467,989.635 313.759,925.873 309.628,923.807 C300.937,919.462 307.6,985.78 308.295,986.474 C310.009,988.189 306.985,975.855 306.961,975.807 C303.646,969.177 299.669,942.265 292.295,939.807 C281.568,936.232 312.678,971.041 306.961,982.474 C303.43,989.536 283.171,947.703 280.295,949.141 C272.802,952.887 303.269,977.859 298.961,986.474 C280.258,1023.88 276.618,959.699 272.295,961.141 C258.506,965.737 284.295,1002.455 284.295,1002.474 C284.295,1004.121 253.599,991.069 257.628,1001.141 C259.887,1006.788 270.25,1011.333 274.961,1014.474 C306.037,1035.191 302.111,1026.474 338.961,1026.474" fill="url(#Gradient_27)"/>
    <path d="M231.742,645.682 C240.869,677.429 328.562,690.313 354.961,674.474 C359.145,671.964 378.611,634.802 373.628,633.141 C365.624,630.473 363.892,657.895 357.628,655.807 C356.953,655.582 357.351,637.468 357.628,635.807 C358.432,630.982 367.514,603.027 364.295,599.807 C358.58,594.093 355.989,642.627 348.295,646.474 C346.07,647.586 341.857,608.589 340.295,607.807 C338.991,607.156 340.295,632.494 340.295,634.474 C340.295,650.847 324.666,620.955 321.628,622.474 C321.052,622.762 321.277,638.24 317.628,635.807 C303.946,626.686 309.628,584.232 309.628,567.807 C309.628,561.082 306.961,581.082 306.961,587.807 C306.961,597.548 304.57,631.532 297.628,638.474 C295.114,640.988 297.628,631.363 297.628,627.807 C297.628,620.398 304.44,602.025 300.295,595.807 C294.047,586.436 294.961,637.364 294.961,638.474 C294.961,642.139 292.897,631.422 292.295,627.807 C290.751,618.544 289.399,605.182 290.961,595.807 C292.274,587.929 296.194,574.642 300.295,567.807 C300.937,566.737 309.498,553.542 308.295,553.141 C298.333,549.82 284.295,631.238 284.295,642.474 C284.295,648.759 282.661,630.007 281.628,623.807 C280.147,614.923 281.119,585.965 274.961,579.807 C274.903,579.749 273.284,588.409 274.961,598.474 C275.511,601.772 281.556,638.474 281.628,638.474 C281.666,638.474 278.545,622.56 274.961,611.807 C272.593,604.702 255.307,555.807 249.628,555.807 C246.983,555.807 259.116,587.529 260.295,590.474 C261.921,594.539 272.446,634.474 274.961,634.474 C277.508,634.474 265.313,613.335 264.295,611.807 C258.77,603.521 246.732,572.175 245.628,571.807 C234.382,568.059 263.326,620.536 264.295,622.474 C267.406,628.696 280.585,641.141 273.628,641.141 C265.982,641.141 249.41,611.807 244.295,611.807 C240.915,611.807 253.628,629.09 253.628,646.474 C253.628,655.038 236.33,613.141 236.295,613.141 C234.98,613.141 237.23,636.084 237.628,638.474 C242.113,665.382 221.938,625.761 236.295,654.474" fill="url(#Gradient_28)"/>
    <path d="M936.284,570.016 C924.34,556.052 960.84,538.777 957.628,529.141 C953.447,516.599 944.277,545.591 941.628,546.474 C940.299,546.917 942.931,529.11 941.628,527.807 C936.912,523.091 941.438,544.315 934.961,546.474 C934.946,546.479 927.724,529.079 926.961,527.807 C922.35,520.122 923.915,534.863 924.295,537.141 C924.739,539.807 928.331,545.141 925.628,545.141 C921.558,545.141 917.843,531.807 914.961,531.807 C909.853,531.807 936.295,567.216 936.295,569.141" fill="url(#Gradient_29)"/>
    <path d="M875.904,458.313 C877.532,453.123 905.042,420.555 901.628,417.141 C895.799,411.312 880.62,445.645 878.961,446.474 C876.241,447.834 880.532,402.109 877.628,401.141 C873.923,399.906 873.86,442.474 870.961,442.474 C865.304,442.474 861.406,403.807 856.295,403.807 C851.559,403.807 860.24,435.753 862.961,438.474 C863.075,438.587 859.09,420.125 848.295,415.807 C836.849,411.229 854.334,439.101 850.961,442.474 C849.493,443.943 829.628,413.632 829.628,422.474 C829.628,425.41 840.828,433.674 842.961,435.807 C849.106,441.952 851.897,452.743 857.628,458.474 C861.541,462.387 876.453,459.807 881.628,459.807" fill="url(#Gradient_30)"/>
    <path d="M424.19,441.703 C422.119,430.993 421.628,420.402 421.628,409.141 C421.628,408.274 425.853,437.91 430.961,425.141 C431.875,422.857 432.007,397.141 433.628,397.141 C437.897,397.141 439.288,424.135 441.628,426.474 C445.713,430.56 441.628,414.918 441.628,409.141 C441.628,402.474 448.295,389.141 441.628,389.141 C440.792,389.141 453.576,439.548 449.628,419.807 C448.468,414.009 443.802,380.72 450.961,377.141 C456.102,374.57 454.802,428.981 456.295,430.474 C457.664,431.843 457.677,414.969 461.628,401.141 C465.164,388.765 472.04,375.807 470.961,375.807 C466.072,375.807 470.961,385.585 470.961,390.474 C470.961,402.587 469.628,414.288 469.628,426.474 C469.628,430.139 471.136,419.284 472.295,415.807 C474.121,410.328 476.956,387.476 481.628,385.141 C482.188,384.861 471.868,424.714 473.628,426.474 C474.472,427.318 497.685,376.856 494.961,390.474 C493.557,397.493 478.719,428.899 484.295,434.474 C485.725,435.904 508.295,393.954 508.295,403.807 C508.295,410.129 491.482,439.287 486.961,443.807 C484.467,446.301 479.375,445.141 476.295,445.141 C466.295,445.141 434.429,451.186 428.295,449.141 C424.083,447.737 423.352,444.59 421.628,441.141" fill="url(#Gradient_31)"/>
    <path d="M306.906,1074.839 C329.267,1079.094 356.487,1072.423 376,1062.667 C403.547,1048.893 377.515,1011.808 354.667,1008 C272.646,994.33 207.897,1074.667 320,1074.667" fill="url(#Gradient_32)"/>
  </g>
  <defs>
    <linearGradient id="Gradient_1" gradientUnits="userSpaceOnUse" x1="513.909" y1="237.638" x2="515.151" y2="282.73">
      <stop offset="0" stop-color="#EAEAEA"/>
      <stop offset="1" stop-color="#2B2B2B"/>
    </linearGradient>
    <linearGradient id="Gradient_2" gradientUnits="userSpaceOnUse" x1="507.175" y1="303.55" x2="508.738" y2="355.178">
      <stop offset="0.099" stop-color="#EDA57F"/>
      <stop offset="0.719" stop-color="#864832"/>
    </linearGradient>
    <linearGradient id="Gradient_3" gradientUnits="userSpaceOnUse" x1="558.739" y1="125.343" x2="583.846" y2="389.113">
      <stop offset="0.371" stop-color="#D5C6C4"/>
      <stop offset="1" stop-color="#7A7775"/>
    </linearGradient>
    <linearGradient id="Gradient_4" gradientUnits="userSpaceOnUse" x1="325.056" y1="950.184" x2="1113.873" y2="950.184">
      <stop offset="0.59" stop-color="#61C4EF"/>
      <stop offset="1" stop-color="#468DAB"/>
    </linearGradient>
    <linearGradient id="Gradient_5" gradientUnits="userSpaceOnUse" x1="925.736" y1="392.586" x2="927.417" y2="458.32">
      <stop offset="0" stop-color="#E7FDD3"/>
      <stop offset="1" stop-color="#3C9526"/>
    </linearGradient>
    <linearGradient id="Gradient_6" gradientUnits="userSpaceOnUse" x1="432.251" y1="354.388" x2="435.579" y2="416.477">
      <stop offset="0" stop-color="#D5D5D5"/>
      <stop offset="1" stop-color="#2B2B2B"/>
    </linearGradient>
    <linearGradient id="Gradient_7" gradientUnits="userSpaceOnUse" x1="570.813" y1="386.047" x2="573.091" y2="440.113">
      <stop offset="0" stop-color="#D5D5D5"/>
      <stop offset="1" stop-color="#2B2B2B"/>
    </linearGradient>
    <linearGradient id="Gradient_8" gradientUnits="userSpaceOnUse" x1="730.356" y1="351.962" x2="733.588" y2="422.351">
      <stop offset="0" stop-color="#D5D5D5"/>
      <stop offset="1" stop-color="#2B2B2B"/>
    </linearGradient>
    <linearGradient id="Gradient_9" gradientUnits="userSpaceOnUse" x1="805.525" y1="383.065" x2="807.62" y2="437.93">
      <stop offset="0" stop-color="#D5D5D5"/>
      <stop offset="1" stop-color="#2B2B2B"/>
    </linearGradient>
    <linearGradient id="Gradient_10" gradientUnits="userSpaceOnUse" x1="490.827" y1="453.385" x2="492.086" y2="486.523">
      <stop offset="0" stop-color="#D5D5D5"/>
      <stop offset="1" stop-color="#2B2B2B"/>
    </linearGradient>
    <linearGradient id="Gradient_11" gradientUnits="userSpaceOnUse" x1="447.282" y1="460.99" x2="448.787" y2="495.309">
      <stop offset="0" stop-color="#D5D5D5"/>
      <stop offset="1" stop-color="#2B2B2B"/>
    </linearGradient>
    <linearGradient id="Gradient_12" gradientUnits="userSpaceOnUse" x1="393.542" y1="393.099" x2="394.395" y2="454.736">
      <stop offset="0" stop-color="#E7FDD3"/>
      <stop offset="1" stop-color="#3C9526"/>
    </linearGradient>
    <linearGradient id="Gradient_13" gradientUnits="userSpaceOnUse" x1="356.715" y1="413.252" x2="360.301" y2="500.26">
      <stop offset="0" stop-color="#D5D5D5"/>
      <stop offset="1" stop-color="#2B2B2B"/>
    </linearGradient>
    <linearGradient id="Gradient_14" gradientUnits="userSpaceOnUse" x1="280.743" y1="468.216" x2="284.83" y2="563.536">
      <stop offset="0" stop-color="#F0B088"/>
      <stop offset="1" stop-color="#8E4830"/>
    </linearGradient>
    <linearGradient id="Gradient_15" gradientUnits="userSpaceOnUse" x1="257.674" y1="567.394" x2="261.94" y2="659">
      <stop offset="0" stop-color="#D5D5D5"/>
      <stop offset="1" stop-color="#2B2B2B"/>
    </linearGradient>
    <linearGradient id="Gradient_16" gradientUnits="userSpaceOnUse" x1="991.173" y1="406.648" x2="993.825" y2="467.541">
      <stop offset="0" stop-color="#F0B088"/>
      <stop offset="1" stop-color="#8E4830"/>
    </linearGradient>
    <linearGradient id="Gradient_17" gradientUnits="userSpaceOnUse" x1="1012.049" y1="433.133" x2="1013.874" y2="501.241">
      <stop offset="0" stop-color="#E7FDD3"/>
      <stop offset="1" stop-color="#3C9526"/>
    </linearGradient>
    <linearGradient id="Gradient_18" gradientUnits="userSpaceOnUse" x1="964.631" y1="466.141" x2="967.37" y2="548.839">
      <stop offset="0" stop-color="#D5D5D5"/>
      <stop offset="1" stop-color="#2B2B2B"/>
    </linearGradient>
    <linearGradient id="Gradient_19" gradientUnits="userSpaceOnUse" x1="1003.297" y1="501.151" x2="1005.308" y2="581.903">
      <stop offset="0" stop-color="#E7FDD3"/>
      <stop offset="1" stop-color="#3C9526"/>
    </linearGradient>
    <linearGradient id="Gradient_20" gradientUnits="userSpaceOnUse" x1="1016.615" y1="550.875" x2="1019.723" y2="615.54">
      <stop offset="0" stop-color="#F0B088"/>
      <stop offset="1" stop-color="#8E4830"/>
    </linearGradient>
    <linearGradient id="Gradient_21" gradientUnits="userSpaceOnUse" x1="987.164" y1="654.58" x2="992.685" y2="809.338">
      <stop offset="0" stop-color="#F0B088"/>
      <stop offset="1" stop-color="#8E4830"/>
    </linearGradient>
    <linearGradient id="Gradient_22" gradientUnits="userSpaceOnUse" x1="326.68" y1="691.543" x2="329.735" y2="808.33">
      <stop offset="0" stop-color="#E7FDD3"/>
      <stop offset="1" stop-color="#3C9526"/>
    </linearGradient>
    <linearGradient id="Gradient_23" gradientUnits="userSpaceOnUse" x1="328.887" y1="771.62" x2="331.86" y2="853.323">
      <stop offset="0" stop-color="#D5D5D5"/>
      <stop offset="1" stop-color="#2B2B2B"/>
    </linearGradient>
    <linearGradient id="Gradient_24" gradientUnits="userSpaceOnUse" x1="275.893" y1="803.239" x2="279.363" y2="928.09">
      <stop offset="0" stop-color="#E7FDD3"/>
      <stop offset="1" stop-color="#3C9526"/>
    </linearGradient>
    <linearGradient id="Gradient_25" gradientUnits="userSpaceOnUse" x1="330.538" y1="835.997" x2="335.658" y2="970.198">
      <stop offset="0" stop-color="#F0B088"/>
      <stop offset="1" stop-color="#8E4830"/>
    </linearGradient>
    <linearGradient id="Gradient_26" gradientUnits="userSpaceOnUse" x1="1012.384" y1="718.169" x2="1016.476" y2="842.857">
      <stop offset="0" stop-color="#E7FDD3"/>
      <stop offset="1" stop-color="#3C9526"/>
    </linearGradient>
    <linearGradient id="Gradient_27" gradientUnits="userSpaceOnUse" x1="326.221" y1="919.822" x2="329.387" y2="1037.175">
      <stop offset="0" stop-color="#E7FDD3"/>
      <stop offset="1" stop-color="#3C9526"/>
    </linearGradient>
    <linearGradient id="Gradient_28" gradientUnits="userSpaceOnUse" x1="301.137" y1="553.058" x2="304.354" y2="681.232">
      <stop offset="0" stop-color="#E7FDD3"/>
      <stop offset="1" stop-color="#3C9526"/>
    </linearGradient>
    <linearGradient id="Gradient_29" gradientUnits="userSpaceOnUse" x1="935.579" y1="525.613" x2="936.556" y2="570.01">
      <stop offset="0" stop-color="#E7FDD3"/>
      <stop offset="1" stop-color="#3C9526"/>
    </linearGradient>
    <linearGradient id="Gradient_30" gradientUnits="userSpaceOnUse" x1="864.963" y1="401.122" x2="866.585" y2="460.634">
      <stop offset="0" stop-color="#E7FDD3"/>
      <stop offset="1" stop-color="#3C9526"/>
    </linearGradient>
    <linearGradient id="Gradient_31" gradientUnits="userSpaceOnUse" x1="463.989" y1="375.817" x2="465.934" y2="449.554">
      <stop offset="0" stop-color="#E7FDD3"/>
      <stop offset="1" stop-color="#3C9526"/>
    </linearGradient>
    <linearGradient id="Gradient_32" gradientUnits="userSpaceOnUse" x1="322.525" y1="1006.443" x2="325.393" y2="1076.138">
      <stop offset="0" stop-color="#D5D5D5"/>
      <stop offset="1" stop-color="#2B2B2B"/>
    </linearGradient>
  </defs>
</svg>
